<?xml version="1.0" standalone="no"?>
<!DOCTYPE svg PUBLIC "-//W3C//DTD SVG 20010904//EN"
 "http://www.w3.org/TR/2001/REC-SVG-20010904/DTD/svg10.dtd">
<svg version="1.0" xmlns="http://www.w3.org/2000/svg"
 width="32.000000pt" height="32.000000pt" viewBox="0 0 32.000000 32.000000"
 preserveAspectRatio="xMidYMid meet">
<metadata>
Created by potrace 1.16, written by Peter Selinger 2001-2019
</metadata>
<g transform="translate(0.000000,32.000000) scale(0.100000,-0.100000)"
fill="#000000" stroke="none">
<path d="M38 261 c-35 -36 -39 -44 -36 -82 l3 -42 100 -55 c99 -55 131 -63
188 -49 23 6 27 13 27 41 0 27 -5 35 -22 40 -25 6 -68 96 -68 141 0 21 -5 25
-28 25 -16 0 -37 -7 -48 -15 -28 -21 -43 -18 -54 10 -5 14 -12 25 -16 25 -3 0
-24 -18 -46 -39z"/>
</g>
</svg>
